<svg id="visual" viewBox="0 0 900 600" width="900" height="600" xmlns="http://www.w3.org/2000/svg" xmlns:xlink="http://www.w3.org/1999/xlink" version="1.1"><rect x="0" y="0" width="900" height="600" fill="#001220"></rect><defs><linearGradient id="grad1_0" x1="33.3%" y1="0%" x2="100%" y2="100%"><stop offset="20%" stop-color="#001220" stop-opacity="1"></stop><stop offset="80%" stop-color="#001220" stop-opacity="1"></stop></linearGradient></defs><defs><linearGradient id="grad2_0" x1="0%" y1="0%" x2="66.7%" y2="100%"><stop offset="20%" stop-color="#001220" stop-opacity="1"></stop><stop offset="80%" stop-color="#001220" stop-opacity="1"></stop></linearGradient></defs><g transform="translate(900, 0)"><path d="M0 324.5C-42.8 320.2 -85.7 315.9 -124.2 299.8C-162.7 283.7 -196.9 255.8 -224.2 224.2C-251.4 192.5 -271.8 157 -287.3 119C-302.9 81 -313.7 40.5 -324.5 0L0 0Z" fill="#FBAE3C"></path></g><g transform="translate(0, 600)"><path d="M0 -324.5C42 -316.1 84.1 -307.7 120.2 -290.1C156.3 -272.5 186.4 -245.7 217.8 -217.8C249.2 -189.8 281.8 -160.7 299.8 -124.2C317.8 -87.7 321.1 -43.8 324.5 0L0 0Z" fill="#FBAE3C"></path></g></svg>