<svg id="visual" viewBox="0 0 900 600" width="900" height="600" xmlns="http://www.w3.org/2000/svg" xmlns:xlink="http://www.w3.org/1999/xlink" version="1.1"><rect x="0" y="0" width="900" height="600" fill="#001220"></rect><path d="M0 375L21.5 381.2C43 387.3 86 399.7 128.8 399.2C171.7 398.7 214.3 385.3 257.2 376.2C300 367 343 362 385.8 366.7C428.7 371.3 471.3 385.7 514.2 394C557 402.3 600 404.7 642.8 410.7C685.7 416.7 728.3 426.3 771.2 417.8C814 409.3 857 382.7 878.5 369.3L900 356L900 601L878.5 601C857 601 814 601 771.2 601C728.3 601 685.7 601 642.8 601C600 601 557 601 514.2 601C471.3 601 428.7 601 385.8 601C343 601 300 601 257.2 601C214.3 601 171.7 601 128.8 601C86 601 43 601 21.5 601L0 601Z" fill="#fa7268"></path><path d="M0 462L21.5 453.8C43 445.7 86 429.3 128.8 418.3C171.7 407.3 214.3 401.7 257.2 403.7C300 405.7 343 415.3 385.8 421.5C428.7 427.7 471.3 430.3 514.2 434C557 437.7 600 442.3 642.8 439.2C685.7 436 728.3 425 771.2 425.3C814 425.7 857 437.3 878.5 443.2L900 449L900 601L878.5 601C857 601 814 601 771.2 601C728.3 601 685.7 601 642.8 601C600 601 557 601 514.2 601C471.3 601 428.7 601 385.8 601C343 601 300 601 257.2 601C214.3 601 171.7 601 128.8 601C86 601 43 601 21.5 601L0 601Z" fill="#ef5f67"></path><path d="M0 493L21.5 487.2C43 481.3 86 469.7 128.8 471.7C171.7 473.7 214.3 489.3 257.2 488.8C300 488.3 343 471.7 385.8 467.5C428.7 463.3 471.3 471.7 514.2 480.2C557 488.7 600 497.3 642.8 491.3C685.7 485.3 728.3 464.7 771.2 461C814 457.3 857 470.7 878.5 477.3L900 484L900 601L878.5 601C857 601 814 601 771.2 601C728.3 601 685.7 601 642.8 601C600 601 557 601 514.2 601C471.3 601 428.7 601 385.8 601C343 601 300 601 257.2 601C214.3 601 171.7 601 128.8 601C86 601 43 601 21.5 601L0 601Z" fill="#e34c67"></path><path d="M0 487L21.5 496.2C43 505.3 86 523.7 128.8 530.3C171.7 537 214.3 532 257.2 532C300 532 343 537 385.8 534.2C428.7 531.3 471.3 520.7 514.2 516.5C557 512.3 600 514.7 642.8 511.8C685.7 509 728.3 501 771.2 503.5C814 506 857 519 878.5 525.5L900 532L900 601L878.5 601C857 601 814 601 771.2 601C728.3 601 685.7 601 642.8 601C600 601 557 601 514.2 601C471.3 601 428.7 601 385.8 601C343 601 300 601 257.2 601C214.3 601 171.7 601 128.8 601C86 601 43 601 21.5 601L0 601Z" fill="#d53867"></path><path d="M0 567L21.5 564.5C43 562 86 557 128.8 553C171.7 549 214.3 546 257.2 544.8C300 543.7 343 544.3 385.8 546.5C428.7 548.7 471.3 552.3 514.2 555.3C557 558.3 600 560.7 642.8 556.2C685.7 551.7 728.3 540.3 771.2 541.2C814 542 857 555 878.5 561.5L900 568L900 601L878.5 601C857 601 814 601 771.2 601C728.3 601 685.7 601 642.8 601C600 601 557 601 514.2 601C471.3 601 428.7 601 385.8 601C343 601 300 601 257.2 601C214.3 601 171.7 601 128.8 601C86 601 43 601 21.5 601L0 601Z" fill="#c62368"></path></svg>